<?xml version="1.0" encoding="UTF-8"?>
<svg version="1.1" xmlns="http://www.w3.org/2000/svg" width="512" height="512">
<path d="M0 0 C4.46428219 3.91665317 8.75672437 7.99802902 12.953125 12.20068359 C14.31134097 13.55666933 15.68766112 14.89621841 17.11328125 16.18115234 C34.8053178 32.4658678 50.47428506 59.66718251 54.33203125 83.57568359 C51.72781401 84.87779221 49.23332978 84.88781417 46.36645508 85.11938477 C13.15010819 87.89151446 -18.72408112 103.16907609 -40.66796875 128.57568359 C-63.40103535 156.29144796 -74.6457036 190.18108672 -71.44970703 226.0234375 C-69.52462945 242.11086085 -64.87267081 256.96956049 -57.61474609 271.42114258 C-57.23398926 272.18112549 -56.85323242 272.9411084 -56.4609375 273.72412109 C-56.11571045 274.39620605 -55.7704834 275.06829102 -55.41479492 275.76074219 C-54.66796875 277.57568359 -54.66796875 277.57568359 -54.66796875 280.57568359 C-57.04070103 281.21046652 -59.41567799 281.83337605 -61.79296875 282.45068359 C-62.43878906 282.62470703 -63.08460938 282.79873047 -63.75 282.97802734 C-75.99396805 286.12647627 -88.27208524 286.95611842 -100.85546875 286.88818359 C-101.57785736 286.88602844 -102.30024597 286.88387329 -103.04452515 286.88165283 C-127.77806452 286.76358972 -150.38816573 281.39005915 -172.66796875 270.57568359 C-173.28978027 270.27968262 -173.9115918 269.98368164 -174.55224609 269.67871094 C-190.10569967 262.19120962 -203.33489518 251.55788736 -215.66796875 239.57568359 C-216.21904297 239.04724854 -216.77011719 238.51881348 -217.33789062 237.97436523 C-221.62323929 233.79709524 -225.41591797 229.39518096 -229.04296875 224.63818359 C-229.88323608 223.5366394 -229.88323608 223.5366394 -230.74047852 222.4128418 C-235.73427372 215.72703464 -239.8980954 208.74553342 -243.74072266 201.34814453 C-244.5682614 199.76627741 -245.43398985 198.20452411 -246.3046875 196.64599609 C-256.16827676 178.36858398 -261.6739108 156.41471952 -261.90625 135.69287109 C-261.91608917 134.96460617 -261.92592834 134.23634125 -261.93606567 133.48600769 C-262.32644673 97.07874135 -254.84849885 63.78323996 -233.66796875 33.57568359 C-232.96671875 32.55603516 -232.26546875 31.53638672 -231.54296875 30.48583984 C-207.46957136 -2.65687566 -171.37904637 -25.31798486 -131.14453125 -32.90478516 C-85.14907526 -39.77826341 -36.18419845 -30.89850904 0 0 Z " fill="#000000" transform="translate(261.66796875,166.42431640625)"/>
<path d="M0 0 C19.02892181 18.74656074 28.62969477 44.52353642 28.99072266 70.96582031 C28.86414658 98.90432456 17.66572611 123.52130533 -1.69677734 143.34082031 C-20.28230723 161.46807686 -45.21066071 171.11049496 -71.07177734 170.96582031 C-72.12091309 170.96090576 -73.17004883 170.95599121 -74.25097656 170.95092773 C-98.00779914 170.59441085 -120.79715919 161.71100481 -138.32177734 145.65332031 C-139.69269531 144.42162109 -139.69269531 144.42162109 -141.09130859 143.16503906 C-159.22964875 126.04143122 -170.62458887 101.44935381 -171.52490234 76.41113281 C-172.03051429 46.73043174 -162.3139542 20.51736477 -141.66162109 -1.13574219 C-101.44671842 -39.39616505 -39.83295303 -37.28426729 0 0 Z " fill="#000000" transform="translate(389.32177734375,308.3466796875)"/>
<path d="M0 0 C7.73372205 7.05341322 13.52328469 15.66135806 17.49047852 25.33227539 C18.08022461 26.76506836 18.08022461 26.76506836 18.68188477 28.22680664 C24.52144876 45.0537036 23.23861585 64.58511074 15.98266602 80.67602539 C7.19285617 98.1738794 -6.77912454 110.98394043 -25.43920898 117.32836914 C-44.01301099 122.47681028 -63.3736254 120.79082056 -80.47827148 111.76586914 C-96.01982716 102.35798923 -108.42496498 88.28516589 -113.0012207 70.41186523 C-117.45990136 51.21975274 -115.90911547 32.00529868 -105.43139648 14.94946289 C-94.43497763 -1.81026825 -79.81941412 -11.71441324 -60.30249023 -16.44506836 C-38.50255605 -20.55775631 -16.68625682 -14.47305352 0 0 Z " fill="#000000" transform="translate(490.509521484375,156.667724609375)"/>
<path d="M0 0 C10.23 0 20.46 0 31 0 C31.350625 2.51625 31.70125 5.0325 32.0625 7.625 C34.55221318 22.72770782 41.93349882 34.66650212 53.875 44.3125 C64.11308046 51.52615749 74.65525573 53.87775052 87 55 C87 65.23 87 75.46 87 86 C84.40425596 87.29787202 82.07273623 87.40112017 79.1875 87.75 C68.72307813 89.3341169 59.8477754 92.56608173 51.8046875 99.546875 C50 101 50 101 47 102 C46.28236635 103.30660788 45.62333168 104.64586565 45 106 C43.91058096 107.49006181 42.8048882 108.96829556 41.6875 110.4375 C34.6283397 120.46739027 32.87473093 129.81424893 31 142 C20.77 142 10.54 142 0 142 C-0.391875 139.6075 -0.78375 137.215 -1.1875 134.75 C-3.27438131 123.21277956 -7.13288938 113.82069979 -15 105 C-15.80050781 104.06027344 -15.80050781 104.06027344 -16.6171875 103.1015625 C-21.28834756 97.98340148 -26.7906876 94.96456254 -33 92 C-33.66902344 91.6803125 -34.33804687 91.360625 -35.02734375 91.03125 C-40.23853414 88.82778683 -45.66047782 88.16787184 -51.2421875 87.4296875 C-54 87 -54 87 -56 86 C-56 75.77 -56 65.54 -56 55 C-51.05 54.34 -46.1 53.68 -41 53 C-25.9803255 47.7951623 -14.3840933 39.34700375 -6.57421875 25.39453125 C-2.82866232 17.31788476 -1.25487157 8.78410096 0 0 Z " fill="#000000" transform="translate(319,33)"/>
<path d="M0 0 C9.9 0 19.8 0 30 0 C30 10.23 30 20.46 30 31 C20.1 31 10.2 31 0 31 C0 20.77 0 10.54 0 0 Z " fill="#000000" transform="translate(444,315)"/>
<path d="M0 0 C9.9 0 19.8 0 30 0 C30 10.23 30 20.46 30 31 C20.1 31 10.2 31 0 31 C0 20.77 0 10.54 0 0 Z " fill="#000000" transform="translate(440,70)"/>
<path d="M0 0 C9.9 0 19.8 0 30 0 C30 10.23 30 20.46 30 31 C20.1 31 10.2 31 0 31 C0 20.77 0 10.54 0 0 Z " fill="#000000" transform="translate(195,70)"/>
</svg>
